M48
; DRILL file {KiCad 9.0.4} date 2026-01-06T17:14:38+0100
; FORMAT={-:-/ absolute / metric / decimal}
; #@! TF.CreationDate,2026-01-06T17:14:38+01:00
; #@! TF.GenerationSoftware,Kicad,Pcbnew,9.0.4
; #@! TF.FileFunction,Plated,1,2,PTH
FMAT,2
METRIC
; #@! TA.AperFunction,Plated,PTH,ViaDrill
T1C0.600
; #@! TA.AperFunction,Plated,PTH,ComponentDrill
T2C0.700
; #@! TA.AperFunction,Plated,PTH,ComponentDrill
T3C0.889
; #@! TA.AperFunction,Plated,PTH,ComponentDrill
T4C1.000
; #@! TA.AperFunction,Plated,PTH,ComponentDrill
T5C1.300
%
G90
G05
T1
X163.4Y-28.2
X165.8Y-31.6
X166.0Y-40.6
X166.4Y-53.0
X166.6Y-45.0
X168.6Y-64.6
X168.6Y-71.4
X168.6Y-77.6
X169.0Y-57.2
X169.2Y-53.0
X172.4Y-44.8
X172.8Y-40.6
X173.0Y-31.6
X174.0Y-28.2
X174.8Y-83.8
X175.4Y-64.4
X175.8Y-71.2
X178.6Y-32.0
X178.8Y-50.4
X179.6Y-79.4
X180.6Y-52.8
X180.6Y-57.6
X181.4Y-22.0
X181.4Y-27.8
X182.4Y-64.2
X183.8Y-44.6
X184.4Y-69.6
X184.4Y-83.8
X185.6Y-48.6
X191.2Y-43.6
X191.8Y-33.6
X193.4Y-37.4
X193.6Y-78.4
X193.6Y-83.8
X194.6Y-44.0
X194.8Y-38.8
X195.8Y-21.0
X196.0Y-33.6
T2
X184.08Y-39.0
X184.638Y-37.284
X184.638Y-40.716
X186.098Y-36.223
X186.098Y-41.777
X187.902Y-36.223
X187.902Y-41.777
X189.362Y-37.284
X189.362Y-40.716
X189.92Y-39.0
T3
X176.79Y-50.59
X176.79Y-53.13
X176.79Y-55.67
X176.79Y-58.21
X184.41Y-50.59
X184.41Y-53.13
X184.41Y-55.67
X184.41Y-58.21
T4
X163.4Y-47.12
X163.4Y-49.66
X163.4Y-52.2
X163.4Y-54.74
X163.4Y-57.28
X163.4Y-59.82
X163.4Y-62.36
X163.4Y-64.9
X163.4Y-67.44
X163.4Y-69.98
X163.4Y-72.52
X163.4Y-75.06
X163.4Y-77.6
X163.4Y-80.14
X163.4Y-82.68
X186.2Y-25.8
X188.5Y-47.12
X188.5Y-49.66
X188.5Y-52.2
X188.5Y-54.74
X188.5Y-57.28
X188.5Y-59.82
X188.5Y-62.36
X188.5Y-64.9
X188.5Y-67.44
X188.5Y-69.98
X188.5Y-72.52
X188.5Y-75.06
X188.5Y-77.6
X188.5Y-80.14
X188.5Y-82.68
X193.8Y-25.8
X194.0Y-47.86
X194.0Y-50.4
X194.4Y-55.46
X194.4Y-58.0
X194.4Y-60.54
X194.4Y-63.08
X194.4Y-65.62
X194.4Y-68.16
X194.4Y-70.7
X194.4Y-73.24
T5
X162.95Y-33.7
X162.95Y-38.7
X175.45Y-33.7
X175.45Y-38.7
M30
