%TF.GenerationSoftware,KiCad,Pcbnew,9.0.4*%
%TF.CreationDate,2026-01-06T17:14:03+01:00*%
%TF.ProjectId,Ampli_capteur_gaz,416d706c-695f-4636-9170-746575725f67,rev?*%
%TF.SameCoordinates,Original*%
%TF.FileFunction,Legend,Top*%
%TF.FilePolarity,Positive*%
%FSLAX46Y46*%
G04 Gerber Fmt 4.6, Leading zero omitted, Abs format (unit mm)*
G04 Created by KiCad (PCBNEW 9.0.4) date 2026-01-06 17:14:03*
%MOMM*%
%LPD*%
G01*
G04 APERTURE LIST*
%ADD10C,0.150000*%
%ADD11C,0.120000*%
%ADD12C,0.152400*%
G04 APERTURE END LIST*
D10*
X163066666Y-44194819D02*
X163066666Y-44909104D01*
X163066666Y-44909104D02*
X163019047Y-45051961D01*
X163019047Y-45051961D02*
X162923809Y-45147200D01*
X162923809Y-45147200D02*
X162780952Y-45194819D01*
X162780952Y-45194819D02*
X162685714Y-45194819D01*
X163447619Y-44194819D02*
X164066666Y-44194819D01*
X164066666Y-44194819D02*
X163733333Y-44575771D01*
X163733333Y-44575771D02*
X163876190Y-44575771D01*
X163876190Y-44575771D02*
X163971428Y-44623390D01*
X163971428Y-44623390D02*
X164019047Y-44671009D01*
X164019047Y-44671009D02*
X164066666Y-44766247D01*
X164066666Y-44766247D02*
X164066666Y-45004342D01*
X164066666Y-45004342D02*
X164019047Y-45099580D01*
X164019047Y-45099580D02*
X163971428Y-45147200D01*
X163971428Y-45147200D02*
X163876190Y-45194819D01*
X163876190Y-45194819D02*
X163590476Y-45194819D01*
X163590476Y-45194819D02*
X163495238Y-45147200D01*
X163495238Y-45147200D02*
X163447619Y-45099580D01*
X181284819Y-41366666D02*
X180808628Y-41699999D01*
X181284819Y-41938094D02*
X180284819Y-41938094D01*
X180284819Y-41938094D02*
X180284819Y-41557142D01*
X180284819Y-41557142D02*
X180332438Y-41461904D01*
X180332438Y-41461904D02*
X180380057Y-41414285D01*
X180380057Y-41414285D02*
X180475295Y-41366666D01*
X180475295Y-41366666D02*
X180618152Y-41366666D01*
X180618152Y-41366666D02*
X180713390Y-41414285D01*
X180713390Y-41414285D02*
X180761009Y-41461904D01*
X180761009Y-41461904D02*
X180808628Y-41557142D01*
X180808628Y-41557142D02*
X180808628Y-41938094D01*
X180284819Y-40509523D02*
X180284819Y-40699999D01*
X180284819Y-40699999D02*
X180332438Y-40795237D01*
X180332438Y-40795237D02*
X180380057Y-40842856D01*
X180380057Y-40842856D02*
X180522914Y-40938094D01*
X180522914Y-40938094D02*
X180713390Y-40985713D01*
X180713390Y-40985713D02*
X181094342Y-40985713D01*
X181094342Y-40985713D02*
X181189580Y-40938094D01*
X181189580Y-40938094D02*
X181237200Y-40890475D01*
X181237200Y-40890475D02*
X181284819Y-40795237D01*
X181284819Y-40795237D02*
X181284819Y-40604761D01*
X181284819Y-40604761D02*
X181237200Y-40509523D01*
X181237200Y-40509523D02*
X181189580Y-40461904D01*
X181189580Y-40461904D02*
X181094342Y-40414285D01*
X181094342Y-40414285D02*
X180856247Y-40414285D01*
X180856247Y-40414285D02*
X180761009Y-40461904D01*
X180761009Y-40461904D02*
X180713390Y-40509523D01*
X180713390Y-40509523D02*
X180665771Y-40604761D01*
X180665771Y-40604761D02*
X180665771Y-40795237D01*
X180665771Y-40795237D02*
X180713390Y-40890475D01*
X180713390Y-40890475D02*
X180761009Y-40938094D01*
X180761009Y-40938094D02*
X180856247Y-40985713D01*
X166233333Y-60759580D02*
X166185714Y-60807200D01*
X166185714Y-60807200D02*
X166042857Y-60854819D01*
X166042857Y-60854819D02*
X165947619Y-60854819D01*
X165947619Y-60854819D02*
X165804762Y-60807200D01*
X165804762Y-60807200D02*
X165709524Y-60711961D01*
X165709524Y-60711961D02*
X165661905Y-60616723D01*
X165661905Y-60616723D02*
X165614286Y-60426247D01*
X165614286Y-60426247D02*
X165614286Y-60283390D01*
X165614286Y-60283390D02*
X165661905Y-60092914D01*
X165661905Y-60092914D02*
X165709524Y-59997676D01*
X165709524Y-59997676D02*
X165804762Y-59902438D01*
X165804762Y-59902438D02*
X165947619Y-59854819D01*
X165947619Y-59854819D02*
X166042857Y-59854819D01*
X166042857Y-59854819D02*
X166185714Y-59902438D01*
X166185714Y-59902438D02*
X166233333Y-59950057D01*
X167185714Y-60854819D02*
X166614286Y-60854819D01*
X166900000Y-60854819D02*
X166900000Y-59854819D01*
X166900000Y-59854819D02*
X166804762Y-59997676D01*
X166804762Y-59997676D02*
X166709524Y-60092914D01*
X166709524Y-60092914D02*
X166614286Y-60140533D01*
X166433333Y-52159580D02*
X166385714Y-52207200D01*
X166385714Y-52207200D02*
X166242857Y-52254819D01*
X166242857Y-52254819D02*
X166147619Y-52254819D01*
X166147619Y-52254819D02*
X166004762Y-52207200D01*
X166004762Y-52207200D02*
X165909524Y-52111961D01*
X165909524Y-52111961D02*
X165861905Y-52016723D01*
X165861905Y-52016723D02*
X165814286Y-51826247D01*
X165814286Y-51826247D02*
X165814286Y-51683390D01*
X165814286Y-51683390D02*
X165861905Y-51492914D01*
X165861905Y-51492914D02*
X165909524Y-51397676D01*
X165909524Y-51397676D02*
X166004762Y-51302438D01*
X166004762Y-51302438D02*
X166147619Y-51254819D01*
X166147619Y-51254819D02*
X166242857Y-51254819D01*
X166242857Y-51254819D02*
X166385714Y-51302438D01*
X166385714Y-51302438D02*
X166433333Y-51350057D01*
X167290476Y-51588152D02*
X167290476Y-52254819D01*
X167052381Y-51207200D02*
X166814286Y-51921485D01*
X166814286Y-51921485D02*
X167433333Y-51921485D01*
X171633333Y-48854819D02*
X171300000Y-48378628D01*
X171061905Y-48854819D02*
X171061905Y-47854819D01*
X171061905Y-47854819D02*
X171442857Y-47854819D01*
X171442857Y-47854819D02*
X171538095Y-47902438D01*
X171538095Y-47902438D02*
X171585714Y-47950057D01*
X171585714Y-47950057D02*
X171633333Y-48045295D01*
X171633333Y-48045295D02*
X171633333Y-48188152D01*
X171633333Y-48188152D02*
X171585714Y-48283390D01*
X171585714Y-48283390D02*
X171538095Y-48331009D01*
X171538095Y-48331009D02*
X171442857Y-48378628D01*
X171442857Y-48378628D02*
X171061905Y-48378628D01*
X172490476Y-48188152D02*
X172490476Y-48854819D01*
X172252381Y-47807200D02*
X172014286Y-48521485D01*
X172014286Y-48521485D02*
X172633333Y-48521485D01*
X186238095Y-32644819D02*
X186238095Y-33454342D01*
X186238095Y-33454342D02*
X186285714Y-33549580D01*
X186285714Y-33549580D02*
X186333333Y-33597200D01*
X186333333Y-33597200D02*
X186428571Y-33644819D01*
X186428571Y-33644819D02*
X186619047Y-33644819D01*
X186619047Y-33644819D02*
X186714285Y-33597200D01*
X186714285Y-33597200D02*
X186761904Y-33549580D01*
X186761904Y-33549580D02*
X186809523Y-33454342D01*
X186809523Y-33454342D02*
X186809523Y-32644819D01*
X187238095Y-32740057D02*
X187285714Y-32692438D01*
X187285714Y-32692438D02*
X187380952Y-32644819D01*
X187380952Y-32644819D02*
X187619047Y-32644819D01*
X187619047Y-32644819D02*
X187714285Y-32692438D01*
X187714285Y-32692438D02*
X187761904Y-32740057D01*
X187761904Y-32740057D02*
X187809523Y-32835295D01*
X187809523Y-32835295D02*
X187809523Y-32930533D01*
X187809523Y-32930533D02*
X187761904Y-33073390D01*
X187761904Y-33073390D02*
X187190476Y-33644819D01*
X187190476Y-33644819D02*
X187809523Y-33644819D01*
X167466667Y-45007200D02*
X167609524Y-45054819D01*
X167609524Y-45054819D02*
X167847619Y-45054819D01*
X167847619Y-45054819D02*
X167942857Y-45007200D01*
X167942857Y-45007200D02*
X167990476Y-44959580D01*
X167990476Y-44959580D02*
X168038095Y-44864342D01*
X168038095Y-44864342D02*
X168038095Y-44769104D01*
X168038095Y-44769104D02*
X167990476Y-44673866D01*
X167990476Y-44673866D02*
X167942857Y-44626247D01*
X167942857Y-44626247D02*
X167847619Y-44578628D01*
X167847619Y-44578628D02*
X167657143Y-44531009D01*
X167657143Y-44531009D02*
X167561905Y-44483390D01*
X167561905Y-44483390D02*
X167514286Y-44435771D01*
X167514286Y-44435771D02*
X167466667Y-44340533D01*
X167466667Y-44340533D02*
X167466667Y-44245295D01*
X167466667Y-44245295D02*
X167514286Y-44150057D01*
X167514286Y-44150057D02*
X167561905Y-44102438D01*
X167561905Y-44102438D02*
X167657143Y-44054819D01*
X167657143Y-44054819D02*
X167895238Y-44054819D01*
X167895238Y-44054819D02*
X168038095Y-44102438D01*
X168371429Y-44054819D02*
X168609524Y-45054819D01*
X168609524Y-45054819D02*
X168800000Y-44340533D01*
X168800000Y-44340533D02*
X168990476Y-45054819D01*
X168990476Y-45054819D02*
X169228572Y-44054819D01*
X169561905Y-44150057D02*
X169609524Y-44102438D01*
X169609524Y-44102438D02*
X169704762Y-44054819D01*
X169704762Y-44054819D02*
X169942857Y-44054819D01*
X169942857Y-44054819D02*
X170038095Y-44102438D01*
X170038095Y-44102438D02*
X170085714Y-44150057D01*
X170085714Y-44150057D02*
X170133333Y-44245295D01*
X170133333Y-44245295D02*
X170133333Y-44340533D01*
X170133333Y-44340533D02*
X170085714Y-44483390D01*
X170085714Y-44483390D02*
X169514286Y-45054819D01*
X169514286Y-45054819D02*
X170133333Y-45054819D01*
X174033333Y-60854819D02*
X173700000Y-60378628D01*
X173461905Y-60854819D02*
X173461905Y-59854819D01*
X173461905Y-59854819D02*
X173842857Y-59854819D01*
X173842857Y-59854819D02*
X173938095Y-59902438D01*
X173938095Y-59902438D02*
X173985714Y-59950057D01*
X173985714Y-59950057D02*
X174033333Y-60045295D01*
X174033333Y-60045295D02*
X174033333Y-60188152D01*
X174033333Y-60188152D02*
X173985714Y-60283390D01*
X173985714Y-60283390D02*
X173938095Y-60331009D01*
X173938095Y-60331009D02*
X173842857Y-60378628D01*
X173842857Y-60378628D02*
X173461905Y-60378628D01*
X174366667Y-59854819D02*
X174985714Y-59854819D01*
X174985714Y-59854819D02*
X174652381Y-60235771D01*
X174652381Y-60235771D02*
X174795238Y-60235771D01*
X174795238Y-60235771D02*
X174890476Y-60283390D01*
X174890476Y-60283390D02*
X174938095Y-60331009D01*
X174938095Y-60331009D02*
X174985714Y-60426247D01*
X174985714Y-60426247D02*
X174985714Y-60664342D01*
X174985714Y-60664342D02*
X174938095Y-60759580D01*
X174938095Y-60759580D02*
X174890476Y-60807200D01*
X174890476Y-60807200D02*
X174795238Y-60854819D01*
X174795238Y-60854819D02*
X174509524Y-60854819D01*
X174509524Y-60854819D02*
X174414286Y-60807200D01*
X174414286Y-60807200D02*
X174366667Y-60759580D01*
X171233333Y-60854819D02*
X170900000Y-60378628D01*
X170661905Y-60854819D02*
X170661905Y-59854819D01*
X170661905Y-59854819D02*
X171042857Y-59854819D01*
X171042857Y-59854819D02*
X171138095Y-59902438D01*
X171138095Y-59902438D02*
X171185714Y-59950057D01*
X171185714Y-59950057D02*
X171233333Y-60045295D01*
X171233333Y-60045295D02*
X171233333Y-60188152D01*
X171233333Y-60188152D02*
X171185714Y-60283390D01*
X171185714Y-60283390D02*
X171138095Y-60331009D01*
X171138095Y-60331009D02*
X171042857Y-60378628D01*
X171042857Y-60378628D02*
X170661905Y-60378628D01*
X171614286Y-59950057D02*
X171661905Y-59902438D01*
X171661905Y-59902438D02*
X171757143Y-59854819D01*
X171757143Y-59854819D02*
X171995238Y-59854819D01*
X171995238Y-59854819D02*
X172090476Y-59902438D01*
X172090476Y-59902438D02*
X172138095Y-59950057D01*
X172138095Y-59950057D02*
X172185714Y-60045295D01*
X172185714Y-60045295D02*
X172185714Y-60140533D01*
X172185714Y-60140533D02*
X172138095Y-60283390D01*
X172138095Y-60283390D02*
X171566667Y-60854819D01*
X171566667Y-60854819D02*
X172185714Y-60854819D01*
X170833333Y-83159580D02*
X170785714Y-83207200D01*
X170785714Y-83207200D02*
X170642857Y-83254819D01*
X170642857Y-83254819D02*
X170547619Y-83254819D01*
X170547619Y-83254819D02*
X170404762Y-83207200D01*
X170404762Y-83207200D02*
X170309524Y-83111961D01*
X170309524Y-83111961D02*
X170261905Y-83016723D01*
X170261905Y-83016723D02*
X170214286Y-82826247D01*
X170214286Y-82826247D02*
X170214286Y-82683390D01*
X170214286Y-82683390D02*
X170261905Y-82492914D01*
X170261905Y-82492914D02*
X170309524Y-82397676D01*
X170309524Y-82397676D02*
X170404762Y-82302438D01*
X170404762Y-82302438D02*
X170547619Y-82254819D01*
X170547619Y-82254819D02*
X170642857Y-82254819D01*
X170642857Y-82254819D02*
X170785714Y-82302438D01*
X170785714Y-82302438D02*
X170833333Y-82350057D01*
X171166667Y-82254819D02*
X171785714Y-82254819D01*
X171785714Y-82254819D02*
X171452381Y-82635771D01*
X171452381Y-82635771D02*
X171595238Y-82635771D01*
X171595238Y-82635771D02*
X171690476Y-82683390D01*
X171690476Y-82683390D02*
X171738095Y-82731009D01*
X171738095Y-82731009D02*
X171785714Y-82826247D01*
X171785714Y-82826247D02*
X171785714Y-83064342D01*
X171785714Y-83064342D02*
X171738095Y-83159580D01*
X171738095Y-83159580D02*
X171690476Y-83207200D01*
X171690476Y-83207200D02*
X171595238Y-83254819D01*
X171595238Y-83254819D02*
X171309524Y-83254819D01*
X171309524Y-83254819D02*
X171214286Y-83207200D01*
X171214286Y-83207200D02*
X171166667Y-83159580D01*
X183024819Y-73566666D02*
X182548628Y-73899999D01*
X183024819Y-74138094D02*
X182024819Y-74138094D01*
X182024819Y-74138094D02*
X182024819Y-73757142D01*
X182024819Y-73757142D02*
X182072438Y-73661904D01*
X182072438Y-73661904D02*
X182120057Y-73614285D01*
X182120057Y-73614285D02*
X182215295Y-73566666D01*
X182215295Y-73566666D02*
X182358152Y-73566666D01*
X182358152Y-73566666D02*
X182453390Y-73614285D01*
X182453390Y-73614285D02*
X182501009Y-73661904D01*
X182501009Y-73661904D02*
X182548628Y-73757142D01*
X182548628Y-73757142D02*
X182548628Y-74138094D01*
X182453390Y-72995237D02*
X182405771Y-73090475D01*
X182405771Y-73090475D02*
X182358152Y-73138094D01*
X182358152Y-73138094D02*
X182262914Y-73185713D01*
X182262914Y-73185713D02*
X182215295Y-73185713D01*
X182215295Y-73185713D02*
X182120057Y-73138094D01*
X182120057Y-73138094D02*
X182072438Y-73090475D01*
X182072438Y-73090475D02*
X182024819Y-72995237D01*
X182024819Y-72995237D02*
X182024819Y-72804761D01*
X182024819Y-72804761D02*
X182072438Y-72709523D01*
X182072438Y-72709523D02*
X182120057Y-72661904D01*
X182120057Y-72661904D02*
X182215295Y-72614285D01*
X182215295Y-72614285D02*
X182262914Y-72614285D01*
X182262914Y-72614285D02*
X182358152Y-72661904D01*
X182358152Y-72661904D02*
X182405771Y-72709523D01*
X182405771Y-72709523D02*
X182453390Y-72804761D01*
X182453390Y-72804761D02*
X182453390Y-72995237D01*
X182453390Y-72995237D02*
X182501009Y-73090475D01*
X182501009Y-73090475D02*
X182548628Y-73138094D01*
X182548628Y-73138094D02*
X182643866Y-73185713D01*
X182643866Y-73185713D02*
X182834342Y-73185713D01*
X182834342Y-73185713D02*
X182929580Y-73138094D01*
X182929580Y-73138094D02*
X182977200Y-73090475D01*
X182977200Y-73090475D02*
X183024819Y-72995237D01*
X183024819Y-72995237D02*
X183024819Y-72804761D01*
X183024819Y-72804761D02*
X182977200Y-72709523D01*
X182977200Y-72709523D02*
X182929580Y-72661904D01*
X182929580Y-72661904D02*
X182834342Y-72614285D01*
X182834342Y-72614285D02*
X182643866Y-72614285D01*
X182643866Y-72614285D02*
X182548628Y-72661904D01*
X182548628Y-72661904D02*
X182501009Y-72709523D01*
X182501009Y-72709523D02*
X182453390Y-72804761D01*
X168833333Y-60854819D02*
X168500000Y-60378628D01*
X168261905Y-60854819D02*
X168261905Y-59854819D01*
X168261905Y-59854819D02*
X168642857Y-59854819D01*
X168642857Y-59854819D02*
X168738095Y-59902438D01*
X168738095Y-59902438D02*
X168785714Y-59950057D01*
X168785714Y-59950057D02*
X168833333Y-60045295D01*
X168833333Y-60045295D02*
X168833333Y-60188152D01*
X168833333Y-60188152D02*
X168785714Y-60283390D01*
X168785714Y-60283390D02*
X168738095Y-60331009D01*
X168738095Y-60331009D02*
X168642857Y-60378628D01*
X168642857Y-60378628D02*
X168261905Y-60378628D01*
X169785714Y-60854819D02*
X169214286Y-60854819D01*
X169500000Y-60854819D02*
X169500000Y-59854819D01*
X169500000Y-59854819D02*
X169404762Y-59997676D01*
X169404762Y-59997676D02*
X169309524Y-60092914D01*
X169309524Y-60092914D02*
X169214286Y-60140533D01*
X194066666Y-75464819D02*
X194066666Y-76179104D01*
X194066666Y-76179104D02*
X194019047Y-76321961D01*
X194019047Y-76321961D02*
X193923809Y-76417200D01*
X193923809Y-76417200D02*
X193780952Y-76464819D01*
X193780952Y-76464819D02*
X193685714Y-76464819D01*
X194495238Y-75560057D02*
X194542857Y-75512438D01*
X194542857Y-75512438D02*
X194638095Y-75464819D01*
X194638095Y-75464819D02*
X194876190Y-75464819D01*
X194876190Y-75464819D02*
X194971428Y-75512438D01*
X194971428Y-75512438D02*
X195019047Y-75560057D01*
X195019047Y-75560057D02*
X195066666Y-75655295D01*
X195066666Y-75655295D02*
X195066666Y-75750533D01*
X195066666Y-75750533D02*
X195019047Y-75893390D01*
X195019047Y-75893390D02*
X194447619Y-76464819D01*
X194447619Y-76464819D02*
X195066666Y-76464819D01*
X176790000Y-48584319D02*
X176790000Y-48822414D01*
X176551905Y-48727176D02*
X176790000Y-48822414D01*
X176790000Y-48822414D02*
X177028095Y-48727176D01*
X176647143Y-49012890D02*
X176790000Y-48822414D01*
X176790000Y-48822414D02*
X176932857Y-49012890D01*
X176790000Y-48584319D02*
X176790000Y-48822414D01*
X176551905Y-48727176D02*
X176790000Y-48822414D01*
X176790000Y-48822414D02*
X177028095Y-48727176D01*
X176647143Y-49012890D02*
X176790000Y-48822414D01*
X176790000Y-48822414D02*
X176932857Y-49012890D01*
X180433333Y-45254819D02*
X180100000Y-44778628D01*
X179861905Y-45254819D02*
X179861905Y-44254819D01*
X179861905Y-44254819D02*
X180242857Y-44254819D01*
X180242857Y-44254819D02*
X180338095Y-44302438D01*
X180338095Y-44302438D02*
X180385714Y-44350057D01*
X180385714Y-44350057D02*
X180433333Y-44445295D01*
X180433333Y-44445295D02*
X180433333Y-44588152D01*
X180433333Y-44588152D02*
X180385714Y-44683390D01*
X180385714Y-44683390D02*
X180338095Y-44731009D01*
X180338095Y-44731009D02*
X180242857Y-44778628D01*
X180242857Y-44778628D02*
X179861905Y-44778628D01*
X181338095Y-44254819D02*
X180861905Y-44254819D01*
X180861905Y-44254819D02*
X180814286Y-44731009D01*
X180814286Y-44731009D02*
X180861905Y-44683390D01*
X180861905Y-44683390D02*
X180957143Y-44635771D01*
X180957143Y-44635771D02*
X181195238Y-44635771D01*
X181195238Y-44635771D02*
X181290476Y-44683390D01*
X181290476Y-44683390D02*
X181338095Y-44731009D01*
X181338095Y-44731009D02*
X181385714Y-44826247D01*
X181385714Y-44826247D02*
X181385714Y-45064342D01*
X181385714Y-45064342D02*
X181338095Y-45159580D01*
X181338095Y-45159580D02*
X181290476Y-45207200D01*
X181290476Y-45207200D02*
X181195238Y-45254819D01*
X181195238Y-45254819D02*
X180957143Y-45254819D01*
X180957143Y-45254819D02*
X180861905Y-45207200D01*
X180861905Y-45207200D02*
X180814286Y-45159580D01*
X182119047Y-30731009D02*
X182261904Y-30778628D01*
X182261904Y-30778628D02*
X182309523Y-30826247D01*
X182309523Y-30826247D02*
X182357142Y-30921485D01*
X182357142Y-30921485D02*
X182357142Y-31064342D01*
X182357142Y-31064342D02*
X182309523Y-31159580D01*
X182309523Y-31159580D02*
X182261904Y-31207200D01*
X182261904Y-31207200D02*
X182166666Y-31254819D01*
X182166666Y-31254819D02*
X181785714Y-31254819D01*
X181785714Y-31254819D02*
X181785714Y-30254819D01*
X181785714Y-30254819D02*
X182119047Y-30254819D01*
X182119047Y-30254819D02*
X182214285Y-30302438D01*
X182214285Y-30302438D02*
X182261904Y-30350057D01*
X182261904Y-30350057D02*
X182309523Y-30445295D01*
X182309523Y-30445295D02*
X182309523Y-30540533D01*
X182309523Y-30540533D02*
X182261904Y-30635771D01*
X182261904Y-30635771D02*
X182214285Y-30683390D01*
X182214285Y-30683390D02*
X182119047Y-30731009D01*
X182119047Y-30731009D02*
X181785714Y-30731009D01*
X182690476Y-30254819D02*
X183357142Y-30254819D01*
X183357142Y-30254819D02*
X182690476Y-31254819D01*
X182690476Y-31254819D02*
X183357142Y-31254819D01*
X184261904Y-31254819D02*
X183690476Y-31254819D01*
X183976190Y-31254819D02*
X183976190Y-30254819D01*
X183976190Y-30254819D02*
X183880952Y-30397676D01*
X183880952Y-30397676D02*
X183785714Y-30492914D01*
X183785714Y-30492914D02*
X183690476Y-30540533D01*
X193429048Y-28413866D02*
X194190953Y-28413866D01*
X193810000Y-28794819D02*
X193810000Y-28032914D01*
X193666666Y-44934819D02*
X193666666Y-45649104D01*
X193666666Y-45649104D02*
X193619047Y-45791961D01*
X193619047Y-45791961D02*
X193523809Y-45887200D01*
X193523809Y-45887200D02*
X193380952Y-45934819D01*
X193380952Y-45934819D02*
X193285714Y-45934819D01*
X194666666Y-45934819D02*
X194095238Y-45934819D01*
X194380952Y-45934819D02*
X194380952Y-44934819D01*
X194380952Y-44934819D02*
X194285714Y-45077676D01*
X194285714Y-45077676D02*
X194190476Y-45172914D01*
X194190476Y-45172914D02*
X194095238Y-45220533D01*
X174233333Y-48759580D02*
X174185714Y-48807200D01*
X174185714Y-48807200D02*
X174042857Y-48854819D01*
X174042857Y-48854819D02*
X173947619Y-48854819D01*
X173947619Y-48854819D02*
X173804762Y-48807200D01*
X173804762Y-48807200D02*
X173709524Y-48711961D01*
X173709524Y-48711961D02*
X173661905Y-48616723D01*
X173661905Y-48616723D02*
X173614286Y-48426247D01*
X173614286Y-48426247D02*
X173614286Y-48283390D01*
X173614286Y-48283390D02*
X173661905Y-48092914D01*
X173661905Y-48092914D02*
X173709524Y-47997676D01*
X173709524Y-47997676D02*
X173804762Y-47902438D01*
X173804762Y-47902438D02*
X173947619Y-47854819D01*
X173947619Y-47854819D02*
X174042857Y-47854819D01*
X174042857Y-47854819D02*
X174185714Y-47902438D01*
X174185714Y-47902438D02*
X174233333Y-47950057D01*
X174614286Y-47950057D02*
X174661905Y-47902438D01*
X174661905Y-47902438D02*
X174757143Y-47854819D01*
X174757143Y-47854819D02*
X174995238Y-47854819D01*
X174995238Y-47854819D02*
X175090476Y-47902438D01*
X175090476Y-47902438D02*
X175138095Y-47950057D01*
X175138095Y-47950057D02*
X175185714Y-48045295D01*
X175185714Y-48045295D02*
X175185714Y-48140533D01*
X175185714Y-48140533D02*
X175138095Y-48283390D01*
X175138095Y-48283390D02*
X174566667Y-48854819D01*
X174566667Y-48854819D02*
X175185714Y-48854819D01*
D11*
%TO.C,J3*%
X162020000Y-45740000D02*
X163400000Y-45740000D01*
X162020000Y-47120000D02*
X162020000Y-45740000D01*
X162020000Y-48390000D02*
X162020000Y-84060000D01*
X162020000Y-48390000D02*
X164780000Y-48390000D01*
X162020000Y-84060000D02*
X164780000Y-84060000D01*
X164780000Y-48390000D02*
X164780000Y-84060000D01*
X187120000Y-45740000D02*
X188500000Y-45740000D01*
X187120000Y-47120000D02*
X187120000Y-45740000D01*
X187120000Y-48390000D02*
X187120000Y-84060000D01*
X187120000Y-48390000D02*
X189880000Y-48390000D01*
X187120000Y-84060000D02*
X189880000Y-84060000D01*
X189880000Y-48390000D02*
X189880000Y-84060000D01*
%TO.C,R6*%
X178090000Y-40472936D02*
X178090000Y-41927064D01*
X179910000Y-40472936D02*
X179910000Y-41927064D01*
%TO.C,C1*%
X165490000Y-56488748D02*
X165490000Y-57911252D01*
X167310000Y-56488748D02*
X167310000Y-57911252D01*
%TO.C,C4*%
X165690000Y-49311252D02*
X165690000Y-47888748D01*
X167510000Y-49311252D02*
X167510000Y-47888748D01*
%TO.C,R4*%
X170890000Y-50872936D02*
X170890000Y-52327064D01*
X172710000Y-50872936D02*
X172710000Y-52327064D01*
%TO.C,U2*%
X182425307Y-35188982D02*
X183238480Y-36002156D01*
X183188982Y-34425307D02*
X182425307Y-35188982D01*
X184002156Y-35238480D02*
X183188982Y-34425307D01*
X184002156Y-35238480D02*
G75*
G02*
X183238480Y-36002156I2997844J-3761520D01*
G01*
%TO.C,SW2*%
X163090000Y-30090000D02*
X163090000Y-32600000D01*
X163090000Y-30090000D02*
X175310000Y-30090000D01*
X163090000Y-34900000D02*
X163090000Y-37500000D01*
X163090000Y-39800000D02*
X163090000Y-42310000D01*
X175310000Y-30090000D02*
X175310000Y-32600000D01*
X175310000Y-34900000D02*
X175310000Y-37500000D01*
X175310000Y-39800000D02*
X175310000Y-42310000D01*
X175310000Y-42310000D02*
X163090000Y-42310000D01*
X172750000Y-36200000D02*
G75*
G02*
X165650000Y-36200000I-3550000J0D01*
G01*
X165650000Y-36200000D02*
G75*
G02*
X172750000Y-36200000I3550000J0D01*
G01*
%TO.C,R3*%
X173290000Y-56472936D02*
X173290000Y-57927064D01*
X175110000Y-56472936D02*
X175110000Y-57927064D01*
%TO.C,R2*%
X170690000Y-56472936D02*
X170690000Y-57927064D01*
X172510000Y-56472936D02*
X172510000Y-57927064D01*
%TO.C,C3*%
X167690000Y-81911252D02*
X167690000Y-80488748D01*
X169510000Y-81911252D02*
X169510000Y-80488748D01*
%TO.C,R8*%
X183490000Y-74127064D02*
X183490000Y-72672936D01*
X185310000Y-74127064D02*
X185310000Y-72672936D01*
%TO.C,R1*%
X168090000Y-57927064D02*
X168090000Y-56472936D01*
X169910000Y-57927064D02*
X169910000Y-56472936D01*
%TO.C,J2*%
X193070000Y-71970000D02*
X193070000Y-54130000D01*
X193070000Y-74570000D02*
X193070000Y-73240000D01*
X194400000Y-74570000D02*
X193070000Y-74570000D01*
X195730000Y-54130000D02*
X193070000Y-54130000D01*
X195730000Y-71970000D02*
X193070000Y-71970000D01*
X195730000Y-71970000D02*
X195730000Y-54130000D01*
D12*
%TO.C,U3*%
X177044000Y-49193000D02*
X177044000Y-49558760D01*
X177044000Y-51621240D02*
X177044000Y-52130530D01*
X177044000Y-54129470D02*
X177044000Y-54670530D01*
X177044000Y-56669470D02*
X177044000Y-57210530D01*
X177044000Y-59209470D02*
X177044000Y-59607000D01*
X177044000Y-59607000D02*
X184156000Y-59607000D01*
X184156000Y-49193000D02*
X177044000Y-49193000D01*
X184156000Y-49590530D02*
X184156000Y-49193000D01*
X184156000Y-52130530D02*
X184156000Y-51589470D01*
X184156000Y-54670530D02*
X184156000Y-54129470D01*
X184156000Y-57210530D02*
X184156000Y-56669470D01*
X184156000Y-59607000D02*
X184156000Y-59209470D01*
D11*
%TO.C,R5*%
X181327064Y-46490000D02*
X179872936Y-46490000D01*
X181327064Y-48310000D02*
X179872936Y-48310000D01*
%TO.C,BZ1*%
X196100000Y-25800000D02*
G75*
G02*
X183900000Y-25800000I-6100000J0D01*
G01*
X183900000Y-25800000D02*
G75*
G02*
X196100000Y-25800000I6100000J0D01*
G01*
%TO.C,J1*%
X192620000Y-46480000D02*
X194000000Y-46480000D01*
X192620000Y-47860000D02*
X192620000Y-46480000D01*
X192620000Y-49130000D02*
X192620000Y-51780000D01*
X192620000Y-49130000D02*
X195380000Y-49130000D01*
X192620000Y-51780000D02*
X195380000Y-51780000D01*
X195380000Y-49130000D02*
X195380000Y-51780000D01*
%TO.C,C2*%
X173490000Y-50888748D02*
X173490000Y-52311252D01*
X175310000Y-50888748D02*
X175310000Y-52311252D01*
%TD*%
M02*
